<?xml version="1.0" encoding="UTF-8" standalone="no"?>
<!DOCTYPE svg PUBLIC "-//W3C//DTD SVG 1.1//EN" "http://www.w3.org/Graphics/SVG/1.1/DTD/svg11.dtd">
<svg version="1.1" xmlns="http://www.w3.org/2000/svg" xmlns:xlink="http://www.w3.org/1999/xlink" preserveAspectRatio="xMidYMid meet" viewBox="0 0 640 640" width="640" height="640"><defs><path d="M560 323.89C560 456.35 452.46 563.89 320 563.89C187.54 563.89 80 456.35 80 323.89C80 191.43 187.54 83.89 320 83.89C452.46 83.89 560 191.43 560 323.89Z" id="c4vtyjMf9"></path><path d="M510 323.89C510 428.75 424.86 513.89 320 513.89C215.14 513.89 130 428.75 130 323.89C130 219.03 215.14 133.89 320 133.89C424.86 133.89 510 219.03 510 323.89Z" id="b1Bq4jAXzS"></path><path d="M430 323.89C430 384.6 380.71 433.89 320 433.89C259.29 433.89 210 384.6 210 323.89C210 263.18 259.29 213.89 320 213.89C380.71 213.89 430 263.18 430 323.89Z" id="e6yW3FOwf"></path><path d="M430 111.67L320 513.89L210 111.67L430 111.67Z" id="b1jFuuKCl"></path></defs><g><g><use xlink:href="#c4vtyjMf9" opacity="1" fill="#1389da" fill-opacity="1"></use></g><g><use xlink:href="#b1Bq4jAXzS" opacity="1" fill="#ffffff" fill-opacity="1"></use></g><g><use xlink:href="#e6yW3FOwf" opacity="1" fill="#1389da" fill-opacity="1"></use></g><g><use xlink:href="#b1jFuuKCl" opacity="1" fill="#1389da" fill-opacity="1"></use></g></g></svg>